<svg width="15" height="15" viewBox="0 0 15 15" fill="none" xmlns="http://www.w3.org/2000/svg">
<path d="M14.5208 13.6626L10.9508 9.94965C11.8687 8.85847 12.3717 7.48552 12.3717 6.05624C12.3717 2.71688 9.65473 0 6.3154 0C2.97604 0 0.259155 2.71688 0.259155 6.05624C0.259155 9.39563 2.97604 12.1125 6.3154 12.1125C7.56905 12.1125 8.76373 11.7344 9.78508 11.0166L13.3822 14.7577C13.5326 14.9139 13.7348 15 13.9516 15C14.1567 15 14.3512 14.9218 14.499 14.7796C14.8129 14.4776 14.8228 13.9768 14.5208 13.6626ZM6.3154 1.57989C8.78368 1.57989 10.7917 3.58793 10.7917 6.05624C10.7917 8.52458 8.78368 10.5326 6.3154 10.5326C3.84709 10.5326 1.83905 8.52458 1.83905 6.05624C1.83905 3.58793 3.84709 1.57989 6.3154 1.57989Z" fill="#dddddd"/>
</svg>
