<svg width="15" height="15" viewBox="0 0 15 15" fill="none" xmlns="http://www.w3.org/2000/svg">
<path d="M14.5207 13.6626L10.9507 9.94965C11.8687 8.85847 12.3716 7.48552 12.3716 6.05624C12.3716 2.71688 9.65467 0 6.31534 0C2.97598 0 0.259094 2.71688 0.259094 6.05624C0.259094 9.39563 2.97598 12.1125 6.31534 12.1125C7.56899 12.1125 8.76367 11.7344 9.78502 11.0166L13.3822 14.7577C13.5325 14.9139 13.7347 15 13.9515 15C14.1566 15 14.3512 14.9218 14.4989 14.7796C14.8128 14.4776 14.8228 13.9768 14.5207 13.6626ZM6.31534 1.57989C8.78362 1.57989 10.7917 3.58793 10.7917 6.05624C10.7917 8.52458 8.78362 10.5326 6.31534 10.5326C3.84703 10.5326 1.83898 8.52458 1.83898 6.05624C1.83898 3.58793 3.84703 1.57989 6.31534 1.57989Z" fill="#ffffff"/>
</svg>
